<svg data-v-423bf9ae="" xmlns="http://www.w3.org/2000/svg" viewBox="0 0 266 90" class="iconLeft"><!----><!----><!----><g data-v-423bf9ae="" id="aa4725cc-e5b2-45b5-8833-3f6196660bcd" fill="black" transform="matrix(6.1224488604322,0,0,6.1224488604322,109.99999409385242,10.714287480008146)"><path d="M3.74 0.70L3.74 0.70L6.13 0.70L6.13 10.50L4.59 10.50L4.59 5.24L3.74 9.77L2.39 9.77L1.54 5.24L1.54 10.50L0 10.50L0 0.70L2.39 0.70L3.07 4.61L3.74 0.70ZM10.54 0.70L10.54 0.70L12.12 10.50L10.56 10.50L9.59 3.70L9.20 6.90L9.20 6.92L9.59 6.92L9.59 8.46L8.95 8.46L8.62 10.50L7.07 10.50L7.39 8.46L7.04 8.46L7.04 6.92L7.64 6.92L8.64 0.70L10.54 0.70ZM17.49 0.70L17.49 0.70L17.81 0.70L17.77 1.04L16.18 10.28L16.16 10.50L15.92 10.50L14.57 10.50L14.34 10.50L14.29 10.28L12.73 1.04L12.67 0.70L13.01 0.70L14 0.70L14.24 0.70L14.28 0.94L15.25 7.60L16.21 0.94L16.25 0.70L16.49 0.70L17.49 0.70ZM20.15 10.50L20.15 10.50L18.61 10.50L18.61 0.70L20.15 0.70L20.15 10.50ZM24.99 1.16L24.99 1.16L24.99 1.16Q25.33 1.57 25.33 2.07L25.33 2.07L25.33 3.12L25.33 3.40L25.05 3.40L24.07 3.40L23.79 3.40L23.79 3.12L23.79 2.23L22.61 2.23L22.61 3.98L22.61 4.05L23.93 4.05L23.93 4.05Q24.51 4.05 24.92 4.45L24.92 4.45L24.92 4.45Q25.33 4.86 25.33 5.45L25.33 5.45L25.33 6.85L25.33 9.11L25.33 9.11Q25.33 9.62 24.99 10.02L24.99 10.02L24.99 10.02Q24.65 10.40 24.15 10.49L24.15 10.49L24.12 10.50L24.11 10.50L22.27 10.50L22.26 10.50L22.23 10.49L22.23 10.49Q21.73 10.40 21.39 10.02L21.39 10.02L21.39 10.02Q21.06 9.62 21.06 9.11L21.06 9.11L21.06 8.06L21.06 7.78L21.34 7.78L22.33 7.78L22.61 7.78L22.61 8.06L22.61 8.96L23.79 8.96L23.79 5.60L22.46 5.60L22.46 5.60Q21.87 5.60 21.46 5.19L21.46 5.19L21.46 5.19Q21.06 4.79 21.06 4.20L21.06 4.20L21.06 4.10L21.06 3.98L21.06 2.07L21.06 2.07Q21.06 1.57 21.39 1.16L21.39 1.16L21.39 1.16Q21.73 0.78 22.23 0.70L22.23 0.70L22.26 0.70L22.27 0.70L24.11 0.70L24.12 0.70L24.15 0.70L24.15 0.70Q24.65 0.78 24.99 1.16Z"></path></g><!----><g data-v-423bf9ae="" id="c22dbc61-2403-479f-a4f9-082e833f55ce" transform="matrix(2.8125,0,0,2.8125,0,0)" stroke="none" fill="black"><path d="M0 16.024L15.976 32 32 15.976 16.024 0 0 16.024zm15.989 7.323l-7.336-7.336 14.694-.022-7.358 7.358z"></path></g><!----></svg>